<?xml version="1.0" encoding="UTF-8" standalone="no"?>
<!-- Created with Inkscape (http://www.inkscape.org/) -->
<svg
   xmlns:dc="http://purl.org/dc/elements/1.1/"
   xmlns:cc="http://web.resource.org/cc/"
   xmlns:rdf="http://www.w3.org/1999/02/22-rdf-syntax-ns#"
   xmlns:svg="http://www.w3.org/2000/svg"
   xmlns="http://www.w3.org/2000/svg"
   xmlns:sodipodi="http://sodipodi.sourceforge.net/DTD/sodipodi-0.dtd"
   xmlns:inkscape="http://www.inkscape.org/namespaces/inkscape"
   id="svg2107"
   sodipodi:version="0.32"
   inkscape:version="0.45"
   width="2834.6455"
   height="3543.3069"
   sodipodi:docbase="/home/diogo/imagens"
   sodipodi:docname="botton.svg"
   inkscape:output_extension="org.inkscape.output.svg.inkscape"
   version="1.0"
   inkscape:export-filename="/home/diogo/imagens/botton.png"
   inkscape:export-xdpi="36.139999"
   inkscape:export-ydpi="36.139999"
   sodipodi:modified="TRUE">
  <metadata
     id="metadata2112">
    <rdf:RDF>
      <cc:Work
         rdf:about="">
        <dc:format>image/svg+xml</dc:format>
        <dc:type
           rdf:resource="http://purl.org/dc/dcmitype/StillImage" />
      </cc:Work>
    </rdf:RDF>
  </metadata>
  <defs
     id="defs2110" />
  <sodipodi:namedview
     inkscape:window-height="742"
     inkscape:window-width="1280"
     inkscape:pageshadow="2"
     inkscape:pageopacity="0.0"
     guidetolerance="10.0"
     gridtolerance="10.0"
     objecttolerance="10.0"
     borderopacity="1.0"
     bordercolor="#666666"
     pagecolor="#ffffff"
     id="base"
     inkscape:zoom="0.14873112"
     inkscape:cx="1417.3228"
     inkscape:cy="1636.4672"
     inkscape:window-x="8"
     inkscape:window-y="59"
     inkscape:current-layer="svg2107"
     width="80cm"
     height="100cm"
     units="cm" />
  <path
     style="fill:none;fill-opacity:0.75;fill-rule:evenodd;stroke:none;stroke-width:1px;stroke-linecap:butt;stroke-linejoin:miter;stroke-opacity:1"
     d="M 291.7483,300.96126 C 295.68917,301.00125 298.9971,299.14238 301.75242,295.62572 C 304.42198,295.74136 304.98557,297.19715 305.53176,298.66401 C 301.4102,302.19973 297.22586,305.36779 291.7483,300.96126 z "
     id="path3183"
     sodipodi:nodetypes="cccc" />
  <path
     id="path2268"
     d="M 2057.5495,687.21053 C 1945.4785,691.62262 1831.6812,721.48888 1729.6453,773.26679 C 2552.2891,711.15676 2707.7617,1178.2728 2303.8485,2087.8505 C 2730.6706,1643.8545 2673.4707,1104.0507 2567.9523,927.57454 C 2464.9345,755.28138 2264.2583,679.07316 2057.5495,687.21053 z M 646.52329,753.97843 C 450.53487,761.76882 283.71763,842.91154 213.27448,1025.5009 C -38.890622,1679.1199 556.77878,3053.1451 935.85058,2362.3405 C 491.51672,2800.3952 276.64977,1604.7465 283.00987,1402.3679 C 289.40846,1198.7648 278.68858,791.62794 1066.4187,832.61613 C 928.25966,778.05526 780.62114,748.64822 646.52329,753.97843 z "
     style="fill:#00b322;fill-opacity:1;fill-rule:evenodd;stroke:none;stroke-width:9.45444489;stroke-linecap:butt;stroke-linejoin:miter;stroke-miterlimit:4;stroke-dasharray:none;stroke-opacity:1" />
  <path
     sodipodi:nodetypes="csssssccsssccscscssscccscccscccsc"
     id="path2270"
     d="M 1507.0861,755.46201 C 1492.2792,756.25392 1476.6316,758.80149 1461.0906,761.39716 C 1245.2758,797.44174 1038.3687,900.86436 947.72022,1062.5941 C 745.99775,1422.4963 850.75158,2027.8672 897.27368,2096.753 C 897.64064,2097.2678 898.3981,2097.7907 898.75743,2098.2367 C 898.93498,2098.4424 898.58166,2099.5322 898.75743,2099.7205 C 1006.2997,2132.4483 1114.6679,2161.0597 1222.2102,2255.5121 C 1147.4895,2154.4753 1165.8756,2086.5856 941.7854,2043.3388 C 870.12556,1769.2708 899.85553,1338.7004 1041.1952,1114.5245 C 1184.3313,887.49944 1438.7346,869.56942 1496.6999,871.19319 C 1632.3081,874.99157 1725.3773,904.61401 1834.99,983.95638 C 1943.6349,1062.5977 2158.6049,1137.9274 2105.0289,1332.6327 C 1813.0601,1176.3332 1750.9213,1667.9609 2010.0701,2126.4274 C 1813.335,1627.5694 1901.3937,1444.9431 1977.4281,1389.0145 C 2013.8497,1362.2239 2062.9809,1364.6113 2116.8987,1375.661 C 2133.2044,1444.5866 2144.3488,1520.0632 2148.057,1602.6713 C 2156.1647,1783.2886 2171.9997,2046.0048 2048.6472,2248.0934 C 2166.4484,2213.5987 2239.2347,1976.0571 2210.3735,1710.9836 C 2188.3176,1508.4117 2270.1938,1379.7823 2223.6499,1237.6739 C 2173.769,1085.3756 2011.0696,971.01463 1907.6928,912.73741 C 1806.6282,855.76347 1681.8097,746.11997 1507.0861,755.46201 z M 1188.0844,1334.1164 C 1115.3144,1337.9127 1030.5145,1384.2399 935.85058,1483.9729 C 1035.0918,1440.4224 1133.9303,1395.3926 1210.3402,1423.14 C 1320.0542,1462.9818 1471.7314,1635.6587 1326.0711,2218.419 C 1521.8098,1754.2362 1424.5867,1321.7781 1188.0844,1334.1164 z M 2016.0051,2378.6616 C 1972.4156,2568.1875 2069.4682,3027.0486 1699.9709,3080.4652 C 1578.5192,3098.0233 1454.0463,3049.932 1355.746,2896.4829 C 1650.7836,2817.4323 1532.5919,2469.1478 1401.7415,2476.5876 C 1487.2045,2649.3093 1408.5905,2779.8521 1305.299,2905.385 C 1436.6262,3183.1495 1591.7777,3186.6523 1692.5522,3172.4563 C 1877.3388,3146.4256 2102.0996,3063.4129 2016.0051,2378.6616 z "
     style="fill:#0073ff;fill-opacity:1;fill-rule:evenodd;stroke:none;stroke-width:12.27700138;stroke-linecap:butt;stroke-linejoin:miter;stroke-miterlimit:4;stroke-dasharray:none;stroke-opacity:1" />
  <path
     id="path2272"
     d="M 1140.6053,1491.3918 C 1140.2116,1491.5026 1139.4799,1492.7247 1139.1216,1492.8752 C 1138.96,1492.9714 1137.7899,1492.7685 1137.6377,1492.8752 C 1137.4947,1492.9935 1137.7712,1494.2298 1137.6377,1494.3591 C 1137.3898,1494.6407 1136.363,1495.5128 1136.1539,1495.8429 C 1135.9002,1496.4132 1134.8315,1498.1205 1134.6702,1498.8104 C 1134.627,1499.054 1134.7029,1500.0362 1134.6702,1500.294 C 1134.6484,1500.5661 1134.6812,1501.4908 1134.6702,1501.7777 C 1134.6702,1502.0795 1134.6592,1502.9566 1134.6702,1503.2615 C 1134.7139,1503.8778 1134.5838,1505.6018 1134.6702,1506.2291 C 1134.7776,1506.8609 1136.0048,1508.5563 1136.1539,1509.1963 C 1136.3232,1509.8402 1135.9449,1511.5143 1136.1539,1512.1639 C 1136.3827,1512.816 1137.3708,1514.4758 1137.6377,1515.1314 C 1137.9234,1515.7882 1138.7985,1517.4412 1139.1216,1518.0988 C 1144.0624,1527.6357 1153.3392,1537.8675 1164.3446,1544.806 C 1165.8846,1545.7384 1168.6589,1546.9473 1170.2796,1547.7733 C 1172.7393,1548.9696 1176.5661,1551.3115 1179.1819,1552.2247 C 1181.3814,1552.9426 1184.3126,1553.2202 1186.6006,1553.7082 C 1198.0411,1556.1488 1209.0904,1555.9263 1217.7591,1553.7082 C 1219.4615,1553.2316 1222.1579,1552.863 1223.6938,1552.2247 C 1223.994,1552.0906 1224.8848,1550.8807 1225.1779,1550.7408 C 1225.7487,1550.4483 1227.6043,1549.5738 1228.145,1549.2571 C 1228.933,1548.7639 1230.3973,1548.3191 1231.1127,1547.7733 C 1231.3429,1547.5857 1232.3749,1546.4831 1232.5961,1546.2894 C 1233.0224,1545.8919 1233.6893,1545.2254 1234.0802,1544.806 C 1234.2663,1544.5904 1235.3865,1543.5427 1235.5638,1543.3223 C 1236.0677,1542.6446 1236.6304,1541.0786 1237.0475,1540.3546 C 1237.4351,1539.6157 1238.2346,1538.1704 1238.5312,1537.3871 C 1238.6195,1537.1214 1238.4533,1536.1742 1238.5312,1535.9035 C 1238.6654,1535.3532 1239.9245,1533.5048 1240.0148,1532.936 C 1240.0491,1532.6474 1239.9921,1531.7455 1240.0148,1531.4526 C 1240.0264,1531.1547 1240.0148,1530.2704 1240.0148,1529.9684 C 1239.9918,1529.3797 1240.0834,1527.5612 1240.0148,1527.0012 C 1239.9698,1526.7282 1238.5876,1525.7834 1238.5312,1525.5175 C 1238.4643,1525.2581 1238.6091,1524.2865 1238.5312,1524.0336 C 1238.4429,1523.7875 1238.6299,1522.7898 1238.5312,1522.5502 C 1238.4221,1522.3166 1237.1666,1521.2938 1237.0475,1521.0661 C 1236.9184,1520.8447 1237.1866,1519.7981 1237.0475,1519.5825 C 1236.7499,1519.1626 1235.8995,1518.4971 1235.5638,1518.0988 C 1235.3865,1517.905 1234.2663,1516.8036 1234.0802,1516.615 C 1233.6893,1516.2479 1233.0224,1515.4792 1232.5961,1515.1314 C 1223.2875,1508.0168 1205.8203,1504.3942 1186.6006,1500.294 C 1168.7538,1496.4867 1152.8674,1490.9523 1143.5725,1491.3918 C 1143.3423,1491.4115 1142.311,1491.3634 1142.0888,1491.3918 C 1141.8834,1491.4378 1140.8019,1491.3361 1140.6053,1491.3918 z M 1286.0106,1541.8385 C 1235.3945,1604.5775 1166.1178,1591.5451 1112.4143,1590.8016 C 1173.852,1602.2577 1244.3967,1616.9195 1287.4945,1541.8385 C 1287.2804,1542.1069 1286.225,1541.5724 1286.0106,1541.8385 z "
     style="fill:#0073ff;fill-opacity:1;stroke:none;stroke-width:0.53500003;stroke-linecap:butt;stroke-linejoin:round;stroke-miterlimit:4;stroke-opacity:1" />
  <path
     sodipodi:nodetypes="cccc"
     id="path2274"
     d="M 943.10361,2449.3636 C 1063.7435,2450.5878 1165.0074,2393.6831 1249.3546,2286.0293 C 1331.0766,2289.5694 1348.3294,2334.1347 1365.0497,2379.0391 C 1238.8784,2487.2761 1110.7854,2584.2584 943.10361,2449.3636 z "
     style="fill:none;fill-opacity:0.75;fill-rule:evenodd;stroke:none;stroke-width:1px;stroke-linecap:butt;stroke-linejoin:miter;stroke-opacity:1" />
  <path
     id="path2276"
     d="M 2161.4107,2248.0934 C 2082.8187,2270.7706 2076.5835,2317.7296 2070.9031,2365.308 C 2219.0075,2440.8038 2367.0009,2504.7253 2498.217,2334.1498 C 2381.2552,2363.7374 2268.7287,2332.867 2161.4107,2248.0934 z M 1248.9171,2286.6702 C 1164.5699,2394.3239 1063.9093,2451.1049 943.2693,2449.8805 C 1110.9511,2584.7755 1238.4768,2486.8988 1364.6483,2378.6616 C 1347.9278,2333.7574 1330.6388,2290.2101 1248.9171,2286.6702 z "
     style="fill:#ffe60c;fill-opacity:1;fill-rule:evenodd;stroke:#0073ff;stroke-width:30;stroke-linecap:butt;stroke-linejoin:miter;stroke-miterlimit:4;stroke-dasharray:none;stroke-opacity:1" />
  <path
     style="fill:#0073ff;fill-opacity:1;stroke:none;stroke-width:0.53500003;stroke-linecap:butt;stroke-linejoin:round;stroke-miterlimit:4;stroke-opacity:1"
     d="M 2036.243,1451.2292 C 2036.5552,1451.3403 2037.1356,1452.5623 2037.4203,1452.7129 C 2037.5483,1452.8091 2038.4767,1452.606 2038.5977,1452.7129 C 2038.7109,1452.8308 2038.4918,1454.0675 2038.5977,1454.1967 C 2038.7943,1454.4783 2039.6094,1455.3505 2039.7751,1455.6806 C 2039.9765,1456.2509 2040.8245,1457.958 2040.9525,1458.6477 C 2040.9868,1458.8917 2040.9267,1459.8735 2040.9525,1460.1316 C 2040.9699,1460.4037 2040.9439,1461.3282 2040.9525,1461.6154 C 2040.9525,1461.9172 2040.9613,1462.7939 2040.9525,1463.0991 C 2040.9176,1463.7154 2041.021,1465.4394 2040.9525,1466.0665 C 2040.867,1466.6982 2039.8932,1468.3936 2039.7751,1469.0339 C 2039.6409,1469.6777 2039.941,1471.3517 2039.7751,1472.0016 C 2039.5935,1472.6536 2038.8092,1474.3135 2038.5977,1474.9688 C 2038.3708,1475.6255 2037.6762,1477.2785 2037.4203,1477.9364 C 2033.4995,1487.4731 2026.1378,1497.705 2017.4044,1504.6437 C 2016.1827,1505.5758 2013.9806,1506.7847 2012.6946,1507.611 C 2010.7428,1508.8072 2007.706,1511.1492 2005.6301,1512.0619 C 2003.885,1512.7799 2001.559,1513.0579 1999.7434,1513.5458 C 1990.665,1515.9862 1981.8967,1515.764 1975.0177,1513.5458 C 1973.6667,1513.0691 1971.5269,1512.7006 1970.3082,1512.0619 C 1970.0701,1511.9282 1969.363,1510.7184 1969.1305,1510.5782 C 1968.6775,1510.2858 1967.2051,1509.4115 1966.7759,1509.0948 C 1966.1508,1508.6016 1964.9887,1508.1565 1964.4212,1507.611 C 1964.2384,1507.4232 1963.4199,1506.3206 1963.2438,1506.1271 C 1962.9056,1505.7294 1962.3762,1505.0631 1962.0661,1504.6437 C 1961.9183,1504.4281 1961.0295,1503.3802 1960.8889,1503.1596 C 1960.4893,1502.4821 1960.0427,1500.9163 1959.7115,1500.1923 C 1959.4038,1499.4533 1958.7695,1498.0081 1958.5341,1497.2248 C 1958.4639,1496.959 1958.596,1496.0115 1958.5341,1495.7412 C 1958.4275,1495.1905 1957.4287,1493.3421 1957.3567,1492.7737 C 1957.3298,1492.4847 1957.3748,1491.5832 1957.3567,1491.2898 C 1957.3475,1490.9924 1957.3567,1490.1079 1957.3567,1489.8061 C 1957.3748,1489.2174 1957.3025,1487.3983 1957.3567,1486.8386 C 1957.3926,1486.5658 1958.4894,1485.6211 1958.5341,1485.355 C 1958.5874,1485.0957 1958.4722,1484.1238 1958.5341,1483.8712 C 1958.6041,1483.6251 1958.4556,1482.6271 1958.5341,1482.3875 C 1958.6207,1482.1539 1959.6168,1481.1315 1959.7115,1480.9038 C 1959.814,1480.6823 1959.6012,1479.6357 1959.7115,1479.4202 C 1959.9478,1478.9999 1960.6225,1478.3344 1960.8889,1477.9364 C 1961.0295,1477.7426 1961.9183,1476.6411 1962.0661,1476.4527 C 1962.3762,1476.0852 1962.9056,1475.3169 1963.2438,1474.9688 C 1970.6307,1467.8545 1984.4917,1464.2318 1999.7434,1460.1316 C 2013.9057,1456.3243 2026.5122,1450.7899 2033.888,1451.2292 C 2034.0708,1451.2487 2034.8893,1451.2011 2035.0653,1451.2292 C 2035.2282,1451.2753 2036.0865,1451.1738 2036.243,1451.2292 z M 1920.8571,1501.676 C 1961.0232,1564.4152 2015.9975,1551.3825 2058.6133,1550.639 C 2009.8599,1562.0954 1953.8798,1576.7569 1919.6798,1501.676 C 1919.8493,1501.9445 1920.6869,1501.4101 1920.8571,1501.676 z "
     id="path2278" />
</svg>
