<?xml version="1.0" encoding="UTF-8" standalone="no"?>
<!-- Created with Inkscape (http://www.inkscape.org/) -->

<svg
   xmlns:dc="http://purl.org/dc/elements/1.1/"
   xmlns:cc="http://creativecommons.org/ns#"
   xmlns:rdf="http://www.w3.org/1999/02/22-rdf-syntax-ns#"
   xmlns:svg="http://www.w3.org/2000/svg"
   xmlns="http://www.w3.org/2000/svg"
   version="1.1"
   width="652.88336"
   height="382.7547"
   id="svg2">
  <defs
     id="defs4">
 <style
   type="text/css"
   id="style2989" />

  </defs>
  <metadata
     id="metadata7">
    <rdf:RDF>
      <cc:Work
         rdf:about="">
        <dc:format>image/svg+xml</dc:format>
        <dc:type
           rdf:resource="http://purl.org/dc/dcmitype/StillImage" />
        <dc:title></dc:title>
      </cc:Work>
    </rdf:RDF>
  </metadata>
  <g
     transform="translate(-56.415458,-283.84198)"
     id="layer1">
    <g
       transform="matrix(3.543307,0,0,3.543307,22.8979,-37.500137)"
       id="g3014"
       style="fill-rule:evenodd">
      <g
         id="Layer_x0020_1">
  <metadata
   id="CorelCorpID_0Corel-Layer" />

  <path
   d="m 144.819,180.903 c 2.0476,-0.2056 4.0411,-0.1953 6.0937,-0.0753 2.6373,0.154 3.7874,-0.3716 3.1587,2.8903 -0.6195,3.2141 -3.3617,5.1942 -6.4214,5.8431 -9.559,2.0273 -14.0285,-7.534 -2.831,-8.6581 z M 68.3212,167.5358 c 8.5282,-1.4352 11.5783,7.4886 9.8498,7.6584 -0.9669,0.095 -10.9399,-0.0215 -12.8886,-0.0215 -4.4917,-1e-4 -4.5219,0.4271 -3.7875,-1.6667 1.1502,-3.2788 3.3562,-5.3864 6.8263,-5.9702 z m 47.2552,9.1019 0.009,19.8456 11.7904,0.0152 0.1309,-7.8394 0.2304,0.6234 c 2.5006,8.4834 16.5622,9.6989 23.4269,5.3601 l 2.8145,-1.8772 0.054,3.7207 c 3.3753,-0.049 7.8939,0.0738 11.3932,0.108 l 0.0886,-14.8144 c 0.1038,-0.0893 1.4189,7.1451 10.0885,12.3509 5.2436,3.1485 12.0262,4.6954 18.1148,4.3578 l 0,-8.7886 c -21.5586,-0.0288 -20.217,-27.1859 0,-26.4757 l 0,-8.8096 c -8.9903,-0.0941 -18.8077,2.4824 -24.5947,9.8784 -2.2865,2.9223 -2.5393,4.1979 -3.8601,7.5792 -0.8555,-2.3648 -0.5534,-3.5559 -2.1877,-6.0329 -1.1634,-1.7634 -2.5011,-3.0916 -4.3722,-4.1121 -4.9877,-2.8107 -8.9301,-2.3107 -14.5691,-2.2664 l -0.01,8.6251 c 2.4855,0.0891 4.7668,-0.0432 6.9436,1.2836 2.1031,1.2818 2.9937,3.1098 2.8629,5.1299 -0.3878,0.1524 -6.9791,-0.4468 -8.1112,-0.4688 -2.8877,-0.0563 -5.4565,0.219 -8.3364,0.5824 -4.8652,0.6138 -8.1063,3.112 -9.9177,7.8063 -0.6833,-0.511 3.6646,-20.0153 -14.9988,-22.7467 -5.217,-0.7636 -11.3437,-0.2224 -15.7992,2.7643 -3.5776,2.3981 -6.0975,6.1603 -7.1308,11.7932 -0.249,-0.1584 -0.8692,-3.1819 -1.0643,-3.6842 -3.4477,-8.8801 -12.2273,-12.5445 -21.5093,-11.3866 -8.6888,1.084 -15.9615,7.1688 -17.2989,15.6348 l -0.5369,3.7345 c -0.8983,-0.7315 -1.0719,-1.7372 -3.854,-3.3716 -1.601,-0.9407 -3.3449,-1.6523 -5.1006,-2.2511 -3.8579,-1.316 -7.9215,-1.8996 -11.8436,-2.9875 -1.5165,-0.4206 -3.9107,-1.152 -4.7818,-2.5521 -1.1091,-1.7828 -0.305,-4.0293 1.4129,-4.9932 3.8021,-2.133 8.5896,-0.5809 12.5571,0.2064 l -0.0239,-9.2952 C 10.84,149.0049 8.079,167.0673 13.837,173.4929 c 5.7495,6.4162 19.8751,5.9711 24.1332,9.3524 1.7932,1.4239 1.4795,4.2956 -0.3315,5.6507 -1.8023,1.3485 -4.8081,1.5293 -6.9787,1.4781 -4.9263,-0.1164 -8.4792,-1.6404 -12.5672,-4.2141 -2.0737,-1.3056 -1.3028,-1.9013 -4.5972,1.4865 l -4.0362,4.2938 c 0.4465,1.343 8.2895,4.8112 9.9361,5.3573 8.81,2.9218 24.3437,3.1332 29.7943,-5.6126 1.1728,-1.8817 1.3551,-3.2587 1.8625,-5.353 2.4539,3.4847 2.75,5.5977 8.119,8.4873 1.9711,1.0609 3.8951,1.8428 6.0967,2.2462 2.6621,0.4879 5.2972,0.5781 7.8409,0.448 l -0.0847,-8.2059 c -0.6588,0.0483 -3.1164,-0.0179 -4.4155,-0.2661 -1.2801,-0.2447 -2.3448,-0.6643 -3.466,-1.3268 -2.1465,-1.2682 -3.262,-3.238 -3.8454,-5.5967 l 28.2312,0.0353 0.1104,14.8601 11.9465,-0.0169 0.005,-20.1921 c 4e-4,-1.6893 0.347,-3.07 0.699,-3.9291 2.9527,-5.906 10.2851,-5.0973 12.361,-0.5525 0.8677,1.8995 0.925,2.7048 0.9259,4.7149 z"
   id="path2993"
   style="fill:none" />

  <path
   d="m 105.455,109.711 c -1.1803,2.2448 -3.4445,5.1288 -4.8737,7.535 -1.6397,2.7606 -2.8053,5.3854 -4.188,8.2436 -0.876,1.8112 0.3995,2.2815 1.7876,3.5253 2.1154,1.8956 8.368,7.632 10.3556,8.2692 10.2279,-6.9076 18.6374,-11.8979 30.4233,-15.9919 8.8151,-3.0621 19.5042,-5.4647 28.9018,-5.9989 l 11.1401,-0.496 c 0.0512,-0.6531 -14.672,-5.117 -16.1574,-5.4994 -17.8297,-4.5897 -39.8419,-4.7121 -57.3893,0.4131 z"
   id="path2995"
   style="fill:none" />

  <path
   d="m 108.537,137.284 c -1.9876,-0.6372 -8.2402,-6.3736 -10.3556,-8.2692 -0.9913,-0.8883 -1.9252,-1.3821 -2.059,-2.2515 -0.0536,-0.3479 0.021,-0.7561 0.2714,-1.2738 1.3827,-2.8582 2.5483,-5.483 4.188,-8.2436 1.4292,-2.4062 3.6934,-5.2902 4.8737,-7.535 -5.4396,1.0203 -13.4175,4.566 -18.6793,6.7488 0.5125,1.3721 4.6234,5.8567 5.8493,7.0927 1.8602,1.8755 2.2622,2.4805 2.9164,3.2804 -3.0768,7.9749 -5.0459,15.7636 -5.1066,27.1765 0.3115,0.2138 3.5421,-3.8628 4.1679,-4.4658 1.4863,-1.4327 2.8747,-2.9593 4.4253,-4.333 1.5375,-1.3621 3.0203,-2.6965 4.5878,-4.0272 1.5205,-1.2907 3.5356,-2.5991 4.9207,-3.8993 z"
   id="path2997"
   style="fill:none" />

  <path
   d="m 112.371,101.572 c 4.8907,-0.3951 9.3865,-1.0674 14.3738,-1.1468 5.0393,-0.0802 9.9351,0.0392 14.9353,0.6704 2.1819,0.2755 15.6581,1.718 25.4616,5.8027 0.5032,-0.4293 -11.9296,-6.9515 -12.9679,-7.4477 -4.6448,-2.2194 -9.9277,-4.1924 -14.8723,-5.6227 -4.3617,-1.2616 -7.965,-2.0372 -12.3503,-2.8972 -2.159,-0.4234 -2.2365,-0.3867 -3.8733,0.9189 -3.4409,2.7447 -7.9451,6.3457 -10.7069,9.7224 z"
   id="path2999"
   style="fill:none" />

  <path
   d="m 108.537,137.284 c 10.2279,-6.9076 18.6374,-11.8979 30.4233,-15.9919 8.8151,-3.0621 19.5042,-5.4647 28.9018,-5.999 l 11.1401,-0.4959 c 0.0512,-0.6531 -14.672,-5.117 -16.1575,-5.4994 -17.8295,-4.5897 -39.8418,-4.7121 -57.3892,0.4131 -1.1803,2.2447 -3.4445,5.1288 -4.8737,7.535 -1.6397,2.7606 -2.8053,5.3854 -4.188,8.2435 -0.2504,0.5177 -0.325,0.9259 -0.2715,1.2739 0.1339,0.8694 1.0678,1.3632 2.0591,2.2515 2.1154,1.8956 8.368,7.632 10.3556,8.2692 z"
   id="path3001"
   style="fill:#f78b1f" />

  <path
   d="m 126.745,100.426 c 5.0393,-0.0802 9.9351,0.0392 14.9353,0.6704 2.1819,0.2755 15.6581,1.7179 25.4616,5.8027 0.5032,-0.4294 -11.9296,-6.9515 -12.9679,-7.4478 -4.6448,-2.2193 -9.9277,-4.1923 -14.8723,-5.6226 -4.3617,-1.2616 -7.9651,-2.0372 -12.3503,-2.8972 -2.1589,-0.4234 -2.2365,-0.3867 -3.8733,0.9188 -3.4409,2.7448 -7.9451,6.3458 -10.7069,9.7225 4.8907,-0.3951 9.3865,-1.0674 14.3738,-1.1468 z"
   id="path3003"
   style="fill:#005594" />

  <path
   d="m 127.565,182.419 c -0.6833,-0.511 3.6645,-20.0154 -14.9988,-22.7467 -5.217,-0.7637 -11.3437,-0.2224 -15.7992,2.7642 -3.5776,2.3983 -6.0975,6.1604 -7.1308,11.7933 -0.249,-0.1584 -0.8692,-3.182 -1.0643,-3.6842 -3.4477,-8.8801 -12.2273,-12.5446 -21.5093,-11.3866 -8.6888,1.084 -15.9615,7.1688 -17.2989,15.6348 l -0.5369,3.7345 c -0.8983,-0.7315 -1.0719,-1.7372 -3.854,-3.3717 -1.601,-0.9406 -3.3449,-1.6522 -5.1006,-2.251 -3.8579,-1.3161 -7.9215,-1.8997 -11.8436,-2.9876 -1.5165,-0.4206 -3.9107,-1.1519 -4.7818,-2.552 -1.1091,-1.7828 -0.305,-4.0293 1.4129,-4.9932 3.8021,-2.133 8.5896,-0.5809 12.5571,0.2064 L 37.593,153.284 c -26.753,-4.2793 -29.514,13.7831 -23.756,20.2087 5.7495,6.4162 19.8751,5.9711 24.1332,9.3524 1.7932,1.4239 1.4795,4.2956 -0.3316,5.6507 -1.8022,1.3484 -4.808,1.5293 -6.9786,1.4781 -4.9263,-0.1164 -8.4792,-1.6405 -12.5672,-4.2141 -2.0737,-1.3056 -1.3028,-1.9013 -4.5972,1.4865 l -4.0362,4.2938 c 0.4465,1.343 8.2895,4.8112 9.9361,5.3572 8.81,2.9219 24.3437,3.1333 29.7944,-5.6125 1.1727,-1.8818 1.355,-3.2587 1.8624,-5.353 2.4539,3.4846 2.75,5.5977 8.119,8.4873 1.9711,1.0609 3.8951,1.8428 6.0967,2.2462 2.6621,0.4879 5.2972,0.5781 7.8409,0.448 l -0.0847,-8.2059 c -0.6588,0.0482 -3.1164,-0.0179 -4.4155,-0.2662 -1.2801,-0.2447 -2.3448,-0.6642 -3.466,-1.3267 -2.1464,-1.2682 -3.262,-3.238 -3.8454,-5.5967 l 28.2312,0.0353 0.1104,14.8601 11.9465,-0.0168 0.005,-20.1922 c 5e-4,-1.6892 0.347,-3.0701 0.699,-3.9291 2.9527,-5.906 10.285,-5.0973 12.3611,-0.5525 0.8676,1.8995 0.9249,2.7048 0.9258,4.7149 l 0.009,19.8456 11.7904,0.0152 0.131,-7.8394 0.2303,0.6234 c 2.5007,8.4834 16.5621,9.6989 23.4269,5.3601 l 2.8145,-1.8772 0.0541,3.7207 c 3.3752,-0.049 7.8938,0.0738 11.3931,0.108 l 0.0886,-14.8144 c 0.1038,-0.0893 1.4189,7.1451 10.0885,12.3509 5.2436,3.1485 12.0262,4.6953 18.1148,4.3578 l 0,-8.7887 c -21.5586,-0.0287 -20.217,-27.1859 0,-26.4756 l 0,-8.8096 c -8.9903,-0.0942 -18.8077,2.4824 -24.5947,9.8784 -2.2865,2.9222 -2.5393,4.1978 -3.8601,7.5792 -0.8555,-2.3648 -0.5534,-3.5559 -2.1877,-6.0329 -1.1634,-1.7634 -2.5011,-3.0916 -4.3722,-4.1121 -4.9878,-2.8107 -8.9301,-2.3107 -14.5691,-2.2664 l -0.01,8.6251 c 2.4855,0.0891 4.7669,-0.0432 6.9436,1.2836 2.1031,1.2818 2.9938,3.1098 2.863,5.1299 -0.3879,0.1524 -6.9792,-0.4468 -8.1113,-0.4688 -2.8877,-0.0563 -5.4565,0.219 -8.3364,0.5823 -4.8652,0.614 -8.1063,3.1121 -9.9177,7.8064 z m 17.2539,-1.5162 c 2.0476,-0.2056 4.0411,-0.1953 6.0937,-0.0754 2.6373,0.1541 3.7874,-0.3715 3.1587,2.8904 -0.6195,3.2141 -3.3617,5.1942 -6.4214,5.8431 -9.559,2.0273 -14.0285,-7.534 -2.831,-8.6581 z M 68.3211,167.5355 c 8.5282,-1.4351 11.5783,7.4886 9.8498,7.6584 -0.967,0.095 -10.9399,-0.0214 -12.8886,-0.0214 -4.4917,-1e-4 -4.5219,0.4271 -3.7875,-1.6668 1.1502,-3.2787 3.3562,-5.3863 6.8263,-5.9702 z"
   id="path3005"
   style="fill:#005594" />

  <path
   d="m 99.0284,145.211 c 1.5375,-1.3621 3.0203,-2.6965 4.5879,-4.0272 1.5204,-1.2907 3.5355,-2.5991 4.9206,-3.8993 -1.9876,-0.6372 -8.2402,-6.3736 -10.3556,-8.2692 -0.9913,-0.8883 -1.9252,-1.3821 -2.059,-2.2515 -0.0536,-0.348 0.021,-0.7561 0.2714,-1.2739 1.3827,-2.8581 2.5483,-5.4829 4.188,-8.2435 1.4292,-2.4062 3.6934,-5.2903 4.8737,-7.535 -5.4396,1.0203 -13.4175,4.5659 -18.6793,6.7488 0.5125,1.3721 4.6234,5.8567 5.8493,7.0927 1.8601,1.8755 2.2622,2.4804 2.9164,3.2805 -3.0769,7.9748 -5.0459,15.7634 -5.1066,27.1764 0.3115,0.2138 3.5422,-3.8628 4.1679,-4.4659 1.4863,-1.4326 2.8747,-2.9592 4.4253,-4.3329 z"
   id="path3007"
   style="fill:#f6bf86" />

 </g>
    </g>
  </g>
</svg>
